<?xml version="1.0" encoding="utf-8"?>
<svg xmlns="http://www.w3.org/2000/svg" viewBox="0 0 50 50" fill="#000000"><path d="M 5 5 C 3.355469 5 2 6.355469 2 8 L 2 42 C 2 43.644531 3.355469 45 5 45 L 45 45 C 46.644531 45 48 43.644531 48 42 L 48 8 C 48 6.355469 46.644531 5 45 5 Z M 5 7 L 45 7 C 45.5625 7 46 7.4375 46 8 L 46 42 C 46 42.5625 45.5625 43 45 43 L 5 43 C 4.4375 43 4 42.5625 4 42 L 4 8 C 4 7.4375 4.4375 7 5 7 Z M 8.8125 12 C 8.335938 12.089844 7.992188 12.511719 8 13 L 8 17 C 8 17.550781 8.449219 18 9 18 L 13 18 C 13.03125 18 13.0625 18 13.09375 18 C 13.609375 17.953125 14.003906 17.519531 14 17 L 14 13 C 14 12.449219 13.550781 12 13 12 L 9 12 C 8.96875 12 8.9375 12 8.90625 12 C 8.875 12 8.84375 12 8.8125 12 Z M 27.8125 12 C 27.335938 12.089844 26.992188 12.511719 27 13 L 27 17 C 27 17.550781 27.449219 18 28 18 L 32 18 C 32.03125 18 32.0625 18 32.09375 18 C 32.609375 17.953125 33.003906 17.519531 33 17 L 33 13 C 33 12.449219 32.550781 12 32 12 L 28 12 C 27.96875 12 27.9375 12 27.90625 12 C 27.875 12 27.84375 12 27.8125 12 Z M 10 14 L 12 14 L 12 16 L 10 16 Z M 16 14 L 16 16 L 23 16 L 23 14 Z M 29 14 L 31 14 L 31 16 L 29 16 Z M 35 14 L 35 16 L 42 16 L 42 14 Z M 8.8125 22 C 8.335938 22.089844 7.992188 22.511719 8 23 L 8 27 C 8 27.550781 8.449219 28 9 28 L 13 28 C 13.03125 28 13.0625 28 13.09375 28 C 13.609375 27.953125 14.003906 27.519531 14 27 L 14 23 C 14 22.449219 13.550781 22 13 22 L 9 22 C 8.96875 22 8.9375 22 8.90625 22 C 8.875 22 8.84375 22 8.8125 22 Z M 27.8125 22 C 27.335938 22.089844 26.992188 22.511719 27 23 L 27 27 C 27 27.550781 27.449219 28 28 28 L 32 28 C 32.03125 28 32.0625 28 32.09375 28 C 32.609375 27.953125 33.003906 27.519531 33 27 L 33 23 C 33 22.449219 32.550781 22 32 22 L 28 22 C 27.96875 22 27.9375 22 27.90625 22 C 27.875 22 27.84375 22 27.8125 22 Z M 10 24 L 12 24 L 12 26 L 10 26 Z M 16 24 L 16 26 L 23 26 L 23 24 Z M 29 24 L 31 24 L 31 26 L 29 26 Z M 35 24 L 35 26 L 42 26 L 42 24 Z M 8.8125 32 C 8.335938 32.089844 7.992188 32.511719 8 33 L 8 37 C 8 37.550781 8.449219 38 9 38 L 13 38 C 13.03125 38 13.0625 38 13.09375 38 C 13.609375 37.953125 14.003906 37.519531 14 37 L 14 33 C 14 32.449219 13.550781 32 13 32 L 9 32 C 8.96875 32 8.9375 32 8.90625 32 C 8.875 32 8.84375 32 8.8125 32 Z M 27.8125 32 C 27.335938 32.089844 26.992188 32.511719 27 33 L 27 37 C 27 37.550781 27.449219 38 28 38 L 32 38 C 32.03125 38 32.0625 38 32.09375 38 C 32.609375 37.953125 33.003906 37.519531 33 37 L 33 33 C 33 32.449219 32.550781 32 32 32 L 28 32 C 27.96875 32 27.9375 32 27.90625 32 C 27.875 32 27.84375 32 27.8125 32 Z M 10 34 L 12 34 L 12 36 L 10 36 Z M 16 34 L 16 36 L 23 36 L 23 34 Z M 29 34 L 31 34 L 31 36 L 29 36 Z M 35 34 L 35 36 L 42 36 L 42 34 Z" fill="#000000"/></svg>
