<?xml version="1.0" encoding="utf-8"?>
<svg xmlns="http://www.w3.org/2000/svg" viewBox="0 0 24 24" fill="#000000"><path d="M 18 0 C 14.7 0 12 2.7 12 6 C 12 9.3 14.7 12 18 12 C 21.3 12 24 9.3 24 6 C 24 2.7 21.3 0 18 0 z M 18 2 C 20.2 2 22 3.8 22 6 C 22 8.2 20.2 10 18 10 C 15.8 10 14 8.2 14 6 C 14 3.8 15.8 2 18 2 z M 18.900391 3.1992188 L 17.199219 6.0996094 L 19.400391 8.3007812 L 20.300781 7.3007812 L 18.800781 5.9003906 L 20 3.8007812 L 18.900391 3.1992188 z M 4 4 C 2.895 4 2 4.895 2 6 L 2 18 C 2 19.105 2.895 20 4 20 L 20 20 C 21.105 20 22 19.105 22 18 L 22 12.921875 C 21.381 13.280875 20.71 13.555281 20 13.738281 L 20 18 L 4 18 L 4 9.0019531 L 12 14 L 13.861328 12.837891 C 13.342328 12.522891 12.860734 12.153422 12.427734 11.732422 L 12 12 L 4 7.0019531 L 4 6 L 10 6 C 10 5.308 10.096719 4.64 10.261719 4 L 4 4 z" fill="#000000"/></svg>
