<?xml version="1.0" encoding="utf-8"?>
<svg xmlns="http://www.w3.org/2000/svg" viewBox="0 0 24 24" fill="#000000"><path d="M 4 4 C 2.895 4 2 4.895 2 6 L 2 18 C 2 19.105 2.895 20 4 20 L 13.236328 20 C 13.089328 19.383 13 18.721 13 18 L 4 18 L 4 9.0019531 L 12 14 L 20 9.0019531 L 20 11.033203 L 20.3125 11.173828 L 22 11.921875 L 22 6 C 22 4.895 21.105 4 20 4 L 4 4 z M 4 6 L 20 6 L 20 7.0019531 L 12 12 L 4 7.0019531 L 4 6 z M 19.5 13 L 15 15 L 15 18 C 15 21.915 18.22 23.743 19.5 24 C 20.78 23.743 24 21.915 24 18 L 24 15 L 19.5 13 z M 19.5 15.189453 L 22 16.300781 L 22 18 C 22 20.329 20.334 21.504531 19.5 21.894531 C 18.666 21.504531 17 20.329 17 18 L 17 16.300781 L 19.5 15.189453 z" fill="#000000"/></svg>
