<?xml version="1.0" encoding="utf-8"?>
<svg xmlns="http://www.w3.org/2000/svg" viewBox="0 0 24 24" fill="#000000"><path d="M 5 3 C 4.448 3 4 3.448 4 4 L 4 7 L 2.0722656 11.820312 C 2.0242656 11.938313 2 12.065359 2 12.193359 L 2 14 L 3 14 L 3 19 C 3 20.093063 3.9069372 21 5 21 L 19 21 C 20.093063 21 21 20.093063 21 19 L 21 14 L 22 14 L 22 12.193359 C 22 12.066359 21.975734 11.940266 21.927734 11.822266 L 20 7 L 20 4 C 20 3.448 19.552 3 19 3 L 5 3 z M 7 5 C 7.552 5 8 5.448 8 6 C 8 6.552 7.552 7 7 7 C 6.448 7 6 6.552 6 6 C 6 5.448 6.448 5 7 5 z M 10 5 C 10.552 5 11 5.448 11 6 C 11 6.552 10.552 7 10 7 C 9.448 7 9 6.552 9 6 C 9 5.448 9.448 5 10 5 z M 5 14 L 19 14 L 19 19 L 5 19 L 5 14 z" fill="#000000"/></svg>
