<?xml version="1.0" encoding="utf-8"?>
<svg xmlns="http://www.w3.org/2000/svg" viewBox="0 0 128 128" fill="#000000"><path d="M 64 37 A 23 23 0 0 0 64 83 A 23 23 0 0 0 64 37 z M 34.5 47 C 23 47.9 14.199219 58.199609 15.699219 70.099609 C 16.899219 79.099609 24.099609 86.399219 33.099609 87.699219 C 37.499609 88.299219 41.700781 87.499219 45.300781 85.699219 C 46.500781 85.099219 46.699219 83.300391 45.699219 82.400391 C 39.099219 77.100391 35 69 35 60 C 35 56.4 35.700391 52.899219 36.900391 49.699219 C 37.400391 48.399219 36.4 47 35 47 L 34.5 47 z M 93 47 C 91.6 47 90.599609 48.399219 91.099609 49.699219 C 92.299609 52.899219 93 56.4 93 60 C 93 69 88.900391 77.100391 82.400391 82.400391 C 81.300391 83.300391 81.500781 84.999219 82.800781 85.699219 C 86.400781 87.499219 90.5 88.399219 95 87.699219 C 104.1 86.399219 111.30039 79.1 112.40039 70 C 113.90039 58 104.79922 47.6 93.199219 47 L 93 47 z M 64 91 C 49 91 34.9 98.399219 26.5 110.69922 C 24.8 113.19922 24 116.09961 24 119.09961 C 24 120.69961 25.4 122 27 122 L 101 122 C 102.6 122 104 120.69961 104 119.09961 C 104.1 116.09961 103.2 113.09922 101.5 110.69922 C 93.1 98.399219 79 91 64 91 z M 27.666016 95.041016 C 27.546997 95.049829 27.425781 95.068359 27.300781 95.099609 C 17.400781 97.299609 8.6007813 103.1 2.8007812 111.5 C 1.6007813 113.5 3.0007812 116 5.3007812 116 L 15.699219 116 C 16.999219 116 18.2 115.10078 18.5 113.80078 C 18.9 112.00078 19.599609 110.29922 20.599609 108.69922 L 20.599609 108.59961 C 22.999609 104.79961 25.899609 101.5 29.099609 98.5 C 30.505859 97.1875 29.451294 94.908813 27.666016 95.041016 z M 100.23438 95.058594 C 98.449097 95.008423 97.394531 97.28125 98.800781 98.5 C 101.70078 101.2 104.39922 104.19961 106.69922 107.59961 C 106.89922 107.89961 107.2 108.30078 107.5 108.80078 C 108.4 110.40078 109.09961 112.00078 109.59961 113.80078 C 109.89961 115.10078 111.10039 115.90039 112.40039 115.90039 L 122.80078 115.90039 C 125.10078 115.90039 126.49922 113.4 125.19922 111.5 C 119.29922 103.1 110.49961 97.299609 100.59961 95.099609 C 100.47461 95.074609 100.35339 95.061938 100.23438 95.058594 z" fill="#000000"/></svg>
